{
    "asset" : {
        "generator" : "Khronos glTF Blender I/O v1.8.19",
        "version" : "2.0"
    },
    "scene" : 0,
    "scenes" : [
        {
            "name" : "Scene",
            "nodes" : [
                0
            ]
        }
    ],
    "nodes" : [
        {
            "mesh" : 0,
            "name" : "Cube.035",
            "rotation" : [
                0,
                0.7071068286895752,
                0,
                0.7071068286895752
            ],
            "scale" : [
                0.009999999776482582,
                0.27000004053115845,
                0.19000008702278137
            ],
            "translation" : [
                -3.432983160018921,
                0.6022564768791199,
                0.487537145614624
            ]
        }
    ],
    "materials" : [
        {
            "doubleSided" : true,
            "name" : "text",
            "pbrMetallicRoughness" : {
                "baseColorFactor" : [
                    0.8000000715255737,
                    0.6902633309364319,
                    0.5633240938186646,
                    1
                ],
                "metallicFactor" : 0,
                "roughnessFactor" : 0.5
            }
        }
    ],
    "meshes" : [
        {
            "name" : "Cube.064",
            "primitives" : [
                {
                    "attributes" : {
                        "POSITION" : 0,
                        "NORMAL" : 1,
                        "TEXCOORD_0" : 2
                    },
                    "indices" : 3,
                    "material" : 0
                }
            ]
        }
    ],
    "accessors" : [
        {
            "bufferView" : 0,
            "componentType" : 5126,
            "count" : 3524,
            "max" : [
                158.9686279296875,
                1.0000157356262207,
                2.223069429397583
            ],
            "min" : [
                -290.4150390625,
                -1.0000001192092896,
                -1.5142189264297485
            ],
            "type" : "VEC3"
        },
        {
            "bufferView" : 1,
            "componentType" : 5126,
            "count" : 3524,
            "type" : "VEC3"
        },
        {
            "bufferView" : 2,
            "componentType" : 5126,
            "count" : 3524,
            "type" : "VEC2"
        },
        {
            "bufferView" : 3,
            "componentType" : 5123,
            "count" : 7452,
            "type" : "SCALAR"
        }
    ],
    "bufferViews" : [
        {
            "buffer" : 0,
            "byteLength" : 42288,
            "byteOffset" : 0
        },
        {
            "buffer" : 0,
            "byteLength" : 42288,
            "byteOffset" : 42288
        },
        {
            "buffer" : 0,
            "byteLength" : 28192,
            "byteOffset" : 84576
        },
        {
            "buffer" : 0,
            "byteLength" : 14904,
            "byteOffset" : 112768
        }
    ],
    "buffers" : [
        {
            "byteLength" : 127672,
            "uri" : "testmodel.bin"
        }
    ]
}
