{
    "asset" : {
        "generator" : "Khronos glTF Blender I/O v1.8.19",
        "version" : "2.0"
    },
    "scene" : 0,
    "scenes" : [
        {
            "name" : "Scene",
            "nodes" : [
                0,
                1,
                2,
                3
            ]
        }
    ],
    "nodes" : [
        {
            "mesh" : 0,
            "name" : "\u0426\u0438\u043b\u0438\u043d\u0434\u0440.014",
            "scale" : [
                0.11601176112890244,
                0.32019057869911194,
                0.11601109802722931
            ],
            "translation" : [
                -0.0006502866744995117,
                0.004531398415565491,
                -0.00030982494354248047
            ]
        },
        {
            "mesh" : 1,
            "name" : "Plane.017",
            "rotation" : [
                0,
                -0.9590672254562378,
                0,
                0.28317856788635254
            ],
            "scale" : [
                0.7400000691413879,
                0.38273805379867554,
                0.38000011444091797
            ],
            "translation" : [
                -0.0006502866744995117,
                0.004531413316726685,
                -0.00031006336212158203
            ]
        },
        {
            "mesh" : 2,
            "name" : "Cylinder.005",
            "scale" : [
                -0.19693943858146667,
                -0.03607767075300217,
                -0.19042101502418518
            ],
            "translation" : [
                -0.5339136123657227,
                -0.16957469284534454,
                0.5323172211647034
            ]
        },
        {
            "mesh" : 3,
            "name" : "\u0418\u043a\u043e\u0441\u0444\u0435\u0440\u0430.009",
            "rotation" : [
                0,
                -0.987688422203064,
                0,
                0.15643461048603058
            ],
            "scale" : [
                0.11618214100599289,
                0.1322072595357895,
                0.14422613382339478
            ],
            "translation" : [
                -0.0006502866744995117,
                0.004531413316726685,
                -0.0003097057342529297
            ]
        }
    ],
    "materials" : [
        {
            "doubleSided" : true,
            "name" : "\u041c\u0430\u0442\u0435\u0440\u0438\u0430\u043b.010",
            "pbrMetallicRoughness" : {
                "baseColorFactor" : [
                    0.04970656335353851,
                    0.010960078798234463,
                    0.009134059771895409,
                    1
                ],
                "metallicFactor" : 0,
                "roughnessFactor" : 0.5
            }
        },
        {
            "doubleSided" : true,
            "name" : "\u041c\u0430\u0442\u0435\u0440\u0438\u0430\u043b.009",
            "pbrMetallicRoughness" : {
                "baseColorFactor" : [
                    0.08650017529726028,
                    0.2961382269859314,
                    0.010329898446798325,
                    1
                ],
                "metallicFactor" : 0,
                "roughnessFactor" : 0.5
            }
        },
        {
            "doubleSided" : true,
            "name" : "\u041c\u0430\u0442\u0435\u0440\u0438\u0430\u043b.002",
            "pbrMetallicRoughness" : {
                "baseColorFactor" : [
                    0.800000011920929,
                    0.800000011920929,
                    0.800000011920929,
                    1
                ],
                "metallicFactor" : 0,
                "roughnessFactor" : 0.5
            }
        }
    ],
    "meshes" : [
        {
            "name" : "\u0426\u0438\u043b\u0438\u043d\u0434\u0440.025",
            "primitives" : [
                {
                    "attributes" : {
                        "POSITION" : 0,
                        "NORMAL" : 1,
                        "TEXCOORD_0" : 2
                    },
                    "indices" : 3,
                    "material" : 0
                }
            ]
        },
        {
            "name" : "Plane.016",
            "primitives" : [
                {
                    "attributes" : {
                        "POSITION" : 4,
                        "NORMAL" : 5,
                        "TEXCOORD_0" : 6
                    },
                    "indices" : 7,
                    "material" : 1
                }
            ]
        },
        {
            "name" : "Cylinder.007",
            "primitives" : [
                {
                    "attributes" : {
                        "POSITION" : 8,
                        "NORMAL" : 9,
                        "TEXCOORD_0" : 10
                    },
                    "indices" : 11,
                    "material" : 2
                }
            ]
        },
        {
            "name" : "\u0418\u043a\u043e\u0441\u0444\u0435\u0440\u0430.071",
            "primitives" : [
                {
                    "attributes" : {
                        "POSITION" : 12,
                        "NORMAL" : 13,
                        "TEXCOORD_0" : 14
                    },
                    "indices" : 15,
                    "material" : 1
                }
            ]
        }
    ],
    "accessors" : [
        {
            "bufferView" : 0,
            "componentType" : 5126,
            "count" : 480,
            "max" : [
                14.40937614440918,
                1.1250337362289429,
                12.835901260375977
            ],
            "min" : [
                -11.509836196899414,
                -0.6137738227844238,
                -7.524068832397461
            ],
            "type" : "VEC3"
        },
        {
            "bufferView" : 1,
            "componentType" : 5126,
            "count" : 480,
            "type" : "VEC3"
        },
        {
            "bufferView" : 2,
            "componentType" : 5126,
            "count" : 480,
            "type" : "VEC2"
        },
        {
            "bufferView" : 3,
            "componentType" : 5123,
            "count" : 792,
            "type" : "SCALAR"
        },
        {
            "bufferView" : 4,
            "componentType" : 5126,
            "count" : 1896,
            "max" : [
                3.383312940597534,
                -0.30794796347618103,
                2.206695079803467
            ],
            "min" : [
                -3.899925708770752,
                -0.5701630115509033,
                -2.2547335624694824
            ],
            "type" : "VEC3"
        },
        {
            "bufferView" : 5,
            "componentType" : 5126,
            "count" : 1896,
            "type" : "VEC3"
        },
        {
            "bufferView" : 6,
            "componentType" : 5126,
            "count" : 1896,
            "type" : "VEC2"
        },
        {
            "bufferView" : 7,
            "componentType" : 5123,
            "count" : 3600,
            "type" : "SCALAR"
        },
        {
            "bufferView" : 8,
            "componentType" : 5126,
            "count" : 840,
            "max" : [
                0.9989930987358093,
                1,
                1
            ],
            "min" : [
                -0.9989930391311646,
                -2.223519802093506,
                -1
            ],
            "type" : "VEC3"
        },
        {
            "bufferView" : 9,
            "componentType" : 5126,
            "count" : 840,
            "type" : "VEC3"
        },
        {
            "bufferView" : 10,
            "componentType" : 5126,
            "count" : 840,
            "type" : "VEC2"
        },
        {
            "bufferView" : 11,
            "componentType" : 5123,
            "count" : 1656,
            "type" : "SCALAR"
        },
        {
            "bufferView" : 12,
            "componentType" : 5126,
            "count" : 984,
            "max" : [
                14.438093185424805,
                5.518376350402832,
                4.094348430633545
            ],
            "min" : [
                -16.523889541625977,
                -0.15690016746520996,
                -7.779813289642334
            ],
            "type" : "VEC3"
        },
        {
            "bufferView" : 13,
            "componentType" : 5126,
            "count" : 984,
            "type" : "VEC3"
        },
        {
            "bufferView" : 14,
            "componentType" : 5126,
            "count" : 984,
            "type" : "VEC2"
        },
        {
            "bufferView" : 15,
            "componentType" : 5123,
            "count" : 984,
            "type" : "SCALAR"
        }
    ],
    "bufferViews" : [
        {
            "buffer" : 0,
            "byteLength" : 5760,
            "byteOffset" : 0
        },
        {
            "buffer" : 0,
            "byteLength" : 5760,
            "byteOffset" : 5760
        },
        {
            "buffer" : 0,
            "byteLength" : 3840,
            "byteOffset" : 11520
        },
        {
            "buffer" : 0,
            "byteLength" : 1584,
            "byteOffset" : 15360
        },
        {
            "buffer" : 0,
            "byteLength" : 22752,
            "byteOffset" : 16944
        },
        {
            "buffer" : 0,
            "byteLength" : 22752,
            "byteOffset" : 39696
        },
        {
            "buffer" : 0,
            "byteLength" : 15168,
            "byteOffset" : 62448
        },
        {
            "buffer" : 0,
            "byteLength" : 7200,
            "byteOffset" : 77616
        },
        {
            "buffer" : 0,
            "byteLength" : 10080,
            "byteOffset" : 84816
        },
        {
            "buffer" : 0,
            "byteLength" : 10080,
            "byteOffset" : 94896
        },
        {
            "buffer" : 0,
            "byteLength" : 6720,
            "byteOffset" : 104976
        },
        {
            "buffer" : 0,
            "byteLength" : 3312,
            "byteOffset" : 111696
        },
        {
            "buffer" : 0,
            "byteLength" : 11808,
            "byteOffset" : 115008
        },
        {
            "buffer" : 0,
            "byteLength" : 11808,
            "byteOffset" : 126816
        },
        {
            "buffer" : 0,
            "byteLength" : 7872,
            "byteOffset" : 138624
        },
        {
            "buffer" : 0,
            "byteLength" : 1968,
            "byteOffset" : 146496
        }
    ],
    "buffers" : [
        {
            "byteLength" : 148464,
            "uri" : "trianglefield.bin"
        }
    ]
}
