{
    "asset" : {
        "generator" : "Khronos glTF Blender I/O v3.2.40",
        "version" : "2.0"
    },
    "scene" : 0,
    "scenes" : [
        {
            "name" : "Scene",
            "nodes" : [
                0
            ]
        }
    ],
    "nodes" : [
        {
            "mesh" : 0,
            "name" : "Cube.020",
            "scale" : [
                1.8140300512313843,
                0.17391209304332733,
                0.2516304552555084
            ]
        }
    ],
    "materials" : [
        {
            "doubleSided" : true,
            "name" : "\u041c\u0430\u0442\u0435\u0440\u0438\u0430\u043b.002",
            "pbrMetallicRoughness" : {
                "baseColorFactor" : [
                    0.800000011920929,
                    0.800000011920929,
                    0.800000011920929,
                    1
                ],
                "metallicFactor" : 0,
                "roughnessFactor" : 0.5
            }
        },
        {
            "doubleSided" : true,
            "name" : "\u041c\u0430\u0442\u0435\u0440\u0438\u0430\u043b",
            "pbrMetallicRoughness" : {
                "baseColorFactor" : [
                    0.0009104786440730095,
                    0.11443536728620529,
                    0,
                    1
                ],
                "metallicFactor" : 0,
                "roughnessFactor" : 0.5
            }
        },
        {
            "doubleSided" : true,
            "name" : "\u041c\u0430\u0442\u0435\u0440\u0438\u0430\u043b.042",
            "pbrMetallicRoughness" : {
                "baseColorFactor" : [
                    0.6413351893424988,
                    0.8000000715255737,
                    0.8000000715255737,
                    1
                ],
                "metallicFactor" : 0,
                "roughnessFactor" : 0
            }
        }
    ],
    "meshes" : [
        {
            "name" : "Cube.024",
            "primitives" : [
                {
                    "attributes" : {
                        "POSITION" : 0,
                        "NORMAL" : 1,
                        "TEXCOORD_0" : 2,
                        "TEXCOORD_1" : 3
                    },
                    "indices" : 4,
                    "material" : 0
                },
                {
                    "attributes" : {
                        "POSITION" : 5,
                        "NORMAL" : 6,
                        "TEXCOORD_0" : 7,
                        "TEXCOORD_1" : 8
                    },
                    "indices" : 9,
                    "material" : 1
                },
                {
                    "attributes" : {
                        "POSITION" : 10,
                        "NORMAL" : 11,
                        "TEXCOORD_0" : 12,
                        "TEXCOORD_1" : 13
                    },
                    "indices" : 14,
                    "material" : 2
                }
            ]
        }
    ],
    "accessors" : [
        {
            "bufferView" : 0,
            "componentType" : 5126,
            "count" : 10815,
            "max" : [
                1.0000070333480835,
                1.5,
                0.9999891519546509
            ],
            "min" : [
                -0.9999891519546509,
                -1,
                -1.0000070333480835
            ],
            "type" : "VEC3"
        },
        {
            "bufferView" : 1,
            "componentType" : 5126,
            "count" : 10815,
            "type" : "VEC3"
        },
        {
            "bufferView" : 2,
            "componentType" : 5126,
            "count" : 10815,
            "type" : "VEC2"
        },
        {
            "bufferView" : 3,
            "componentType" : 5126,
            "count" : 10815,
            "type" : "VEC2"
        },
        {
            "bufferView" : 4,
            "componentType" : 5123,
            "count" : 20652,
            "type" : "SCALAR"
        },
        {
            "bufferView" : 5,
            "componentType" : 5126,
            "count" : 8,
            "max" : [
                1.0000070333480835,
                1.5,
                0.9999891519546509
            ],
            "min" : [
                -0.9999891519546509,
                1,
                -1.0000070333480835
            ],
            "type" : "VEC3"
        },
        {
            "bufferView" : 6,
            "componentType" : 5126,
            "count" : 8,
            "type" : "VEC3"
        },
        {
            "bufferView" : 7,
            "componentType" : 5126,
            "count" : 8,
            "type" : "VEC2"
        },
        {
            "bufferView" : 8,
            "componentType" : 5126,
            "count" : 8,
            "type" : "VEC2"
        },
        {
            "bufferView" : 9,
            "componentType" : 5123,
            "count" : 12,
            "type" : "SCALAR"
        },
        {
            "bufferView" : 10,
            "componentType" : 5126,
            "count" : 1616,
            "max" : [
                0.9862338304519653,
                0.7612626552581787,
                0.9999891519546509
            ],
            "min" : [
                0.5216668844223022,
                -0.798544704914093,
                -0.9757043719291687
            ],
            "type" : "VEC3"
        },
        {
            "bufferView" : 11,
            "componentType" : 5126,
            "count" : 1616,
            "type" : "VEC3"
        },
        {
            "bufferView" : 12,
            "componentType" : 5126,
            "count" : 1616,
            "type" : "VEC2"
        },
        {
            "bufferView" : 13,
            "componentType" : 5126,
            "count" : 1616,
            "type" : "VEC2"
        },
        {
            "bufferView" : 14,
            "componentType" : 5123,
            "count" : 4080,
            "type" : "SCALAR"
        }
    ],
    "bufferViews" : [
        {
            "buffer" : 0,
            "byteLength" : 129780,
            "byteOffset" : 0
        },
        {
            "buffer" : 0,
            "byteLength" : 129780,
            "byteOffset" : 129780
        },
        {
            "buffer" : 0,
            "byteLength" : 86520,
            "byteOffset" : 259560
        },
        {
            "buffer" : 0,
            "byteLength" : 86520,
            "byteOffset" : 346080
        },
        {
            "buffer" : 0,
            "byteLength" : 41304,
            "byteOffset" : 432600
        },
        {
            "buffer" : 0,
            "byteLength" : 96,
            "byteOffset" : 473904
        },
        {
            "buffer" : 0,
            "byteLength" : 96,
            "byteOffset" : 474000
        },
        {
            "buffer" : 0,
            "byteLength" : 64,
            "byteOffset" : 474096
        },
        {
            "buffer" : 0,
            "byteLength" : 64,
            "byteOffset" : 474160
        },
        {
            "buffer" : 0,
            "byteLength" : 24,
            "byteOffset" : 474224
        },
        {
            "buffer" : 0,
            "byteLength" : 19392,
            "byteOffset" : 474248
        },
        {
            "buffer" : 0,
            "byteLength" : 19392,
            "byteOffset" : 493640
        },
        {
            "buffer" : 0,
            "byteLength" : 12928,
            "byteOffset" : 513032
        },
        {
            "buffer" : 0,
            "byteLength" : 12928,
            "byteOffset" : 525960
        },
        {
            "buffer" : 0,
            "byteLength" : 8160,
            "byteOffset" : 538888
        }
    ],
    "buffers" : [
        {
            "byteLength" : 547048,
            "uri" : "six.bin"
        }
    ]
}
