{
    "asset" : {
        "generator" : "Khronos glTF Blender I/O v1.8.19",
        "version" : "2.0"
    },
    "scene" : 0,
    "scenes" : [
        {
            "name" : "Scene",
            "nodes" : [
                0
            ]
        }
    ],
    "nodes" : [
        {
            "mesh" : 0,
            "name" : "Cube.011",
            "rotation" : [
                0.7071068286895752,
                0,
                0,
                0.7071068286895752
            ],
            "scale" : [
                0.0013119439827278256,
                0.004591803532093763,
                0.0014666025526821613
            ],
            "translation" : [
                0,
                0.27437353134155273,
                0
            ]
        }
    ],
    "materials" : [
        {
            "doubleSided" : true,
            "name" : "Material.003",
            "pbrMetallicRoughness" : {
                "baseColorFactor" : [
                    0.8000000715255737,
                    0.36824852228164673,
                    0,
                    1
                ],
                "metallicFactor" : 0,
                "roughnessFactor" : 0.5
            }
        },
        {
            "doubleSided" : true,
            "name" : "Material.002",
            "pbrMetallicRoughness" : {
                "baseColorFactor" : [
                    0.0009104786440730095,
                    0.11443536728620529,
                    0,
                    1
                ],
                "metallicFactor" : 0,
                "roughnessFactor" : 0.5
            }
        },
        {
            "doubleSided" : true,
            "name" : "Material.001",
            "pbrMetallicRoughness" : {
                "baseColorFactor" : [
                    0.800000011920929,
                    0.800000011920929,
                    0.800000011920929,
                    1
                ],
                "metallicFactor" : 0,
                "roughnessFactor" : 0.5
            }
        },
        {
            "doubleSided" : true,
            "name" : "\u041c\u0430\u0442\u0435\u0440\u0438\u0430\u043b.007",
            "pbrMetallicRoughness" : {
                "baseColorFactor" : [
                    0.800000011920929,
                    0.800000011920929,
                    0.800000011920929,
                    1
                ],
                "metallicFactor" : 0,
                "roughnessFactor" : 0.5
            }
        },
        {
            "doubleSided" : true,
            "name" : "\u041c\u0430\u0442\u0435\u0440\u0438\u0430\u043b",
            "pbrMetallicRoughness" : {
                "baseColorFactor" : [
                    0.0009104786440730095,
                    0.11443536728620529,
                    0,
                    1
                ],
                "metallicFactor" : 0,
                "roughnessFactor" : 0.5
            }
        },
        {
            "doubleSided" : true,
            "name" : "Material.004",
            "pbrMetallicRoughness" : {
                "baseColorFactor" : [
                    0.800000011920929,
                    0.800000011920929,
                    0.800000011920929,
                    1
                ],
                "metallicFactor" : 0,
                "roughnessFactor" : 0.5
            }
        },
        {
            "doubleSided" : true,
            "name" : "Material.005",
            "pbrMetallicRoughness" : {
                "baseColorFactor" : [
                    0.0009104786440730095,
                    0.11443536728620529,
                    0,
                    1
                ],
                "metallicFactor" : 0,
                "roughnessFactor" : 0.5
            }
        }
    ],
    "meshes" : [
        {
            "name" : "Cube.024",
            "primitives" : [
                {
                    "attributes" : {
                        "POSITION" : 0,
                        "NORMAL" : 1,
                        "TEXCOORD_0" : 2
                    },
                    "indices" : 3,
                    "material" : 0
                },
                {
                    "attributes" : {
                        "POSITION" : 4,
                        "NORMAL" : 5,
                        "TEXCOORD_0" : 6
                    },
                    "indices" : 7,
                    "material" : 1
                },
                {
                    "attributes" : {
                        "POSITION" : 8,
                        "NORMAL" : 9,
                        "TEXCOORD_0" : 10
                    },
                    "indices" : 11,
                    "material" : 2
                },
                {
                    "attributes" : {
                        "POSITION" : 12,
                        "NORMAL" : 13,
                        "TEXCOORD_0" : 14
                    },
                    "indices" : 15,
                    "material" : 3
                },
                {
                    "attributes" : {
                        "POSITION" : 16,
                        "NORMAL" : 17,
                        "TEXCOORD_0" : 18
                    },
                    "indices" : 19,
                    "material" : 4
                },
                {
                    "attributes" : {
                        "POSITION" : 20,
                        "NORMAL" : 21,
                        "TEXCOORD_0" : 22
                    },
                    "indices" : 23,
                    "material" : 5
                },
                {
                    "attributes" : {
                        "POSITION" : 24,
                        "NORMAL" : 25,
                        "TEXCOORD_0" : 26
                    },
                    "indices" : 27,
                    "material" : 6
                }
            ]
        }
    ],
    "accessors" : [
        {
            "bufferView" : 0,
            "componentType" : 5126,
            "count" : 3322,
            "max" : [
                2.369027853012085,
                1.7422842979431152,
                2.6640396118164062
            ],
            "min" : [
                -2.3690271377563477,
                -1.7536516189575195,
                -17.226886749267578
            ],
            "type" : "VEC3"
        },
        {
            "bufferView" : 1,
            "componentType" : 5126,
            "count" : 3322,
            "type" : "VEC3"
        },
        {
            "bufferView" : 2,
            "componentType" : 5126,
            "count" : 3322,
            "type" : "VEC2"
        },
        {
            "bufferView" : 3,
            "componentType" : 5123,
            "count" : 5280,
            "type" : "SCALAR"
        },
        {
            "bufferView" : 4,
            "componentType" : 5126,
            "count" : 4928,
            "max" : [
                25.579872131347656,
                7.30285120010376,
                50.63036346435547
            ],
            "min" : [
                -25.579864501953125,
                -7.314218997955322,
                2.4037342071533203
            ],
            "type" : "VEC3"
        },
        {
            "bufferView" : 5,
            "componentType" : 5126,
            "count" : 4928,
            "type" : "VEC3"
        },
        {
            "bufferView" : 6,
            "componentType" : 5126,
            "count" : 4928,
            "type" : "VEC2"
        },
        {
            "bufferView" : 7,
            "componentType" : 5123,
            "count" : 7488,
            "type" : "SCALAR"
        },
        {
            "bufferView" : 8,
            "componentType" : 5126,
            "count" : 24,
            "max" : [
                13.242843627929688,
                3.777967929840088,
                89.37408447265625
            ],
            "min" : [
                -13.243157386779785,
                -3.789461135864258,
                38.84474182128906
            ],
            "type" : "VEC3"
        },
        {
            "bufferView" : 9,
            "componentType" : 5126,
            "count" : 24,
            "type" : "VEC3"
        },
        {
            "bufferView" : 10,
            "componentType" : 5126,
            "count" : 24,
            "type" : "VEC2"
        },
        {
            "bufferView" : 11,
            "componentType" : 5123,
            "count" : 36,
            "type" : "SCALAR"
        },
        {
            "bufferView" : 12,
            "componentType" : 5126,
            "count" : 350,
            "max" : [
                116.7358627319336,
                33.38672637939453,
                262.0669860839844
            ],
            "min" : [
                -116.73585510253906,
                -33.38671875,
                112.09506225585938
            ],
            "type" : "VEC3"
        },
        {
            "bufferView" : 13,
            "componentType" : 5126,
            "count" : 350,
            "type" : "VEC3"
        },
        {
            "bufferView" : 14,
            "componentType" : 5126,
            "count" : 350,
            "type" : "VEC2"
        },
        {
            "bufferView" : 15,
            "componentType" : 5123,
            "count" : 624,
            "type" : "SCALAR"
        },
        {
            "bufferView" : 16,
            "componentType" : 5126,
            "count" : 350,
            "max" : [
                116.7358627319336,
                33.38672637939453,
                112.09507751464844
            ],
            "min" : [
                -116.73585510253906,
                -33.38671875,
                64.52180480957031
            ],
            "type" : "VEC3"
        },
        {
            "bufferView" : 17,
            "componentType" : 5126,
            "count" : 350,
            "type" : "VEC3"
        },
        {
            "bufferView" : 18,
            "componentType" : 5126,
            "count" : 350,
            "type" : "VEC2"
        },
        {
            "bufferView" : 19,
            "componentType" : 5123,
            "count" : 624,
            "type" : "SCALAR"
        },
        {
            "bufferView" : 20,
            "componentType" : 5126,
            "count" : 30,
            "max" : [
                118.09833526611328,
                10.204474449157715,
                261.8140869140625
            ],
            "min" : [
                110.27201080322266,
                -9.453969955444336,
                144.94552612304688
            ],
            "type" : "VEC3"
        },
        {
            "bufferView" : 21,
            "componentType" : 5126,
            "count" : 30,
            "type" : "VEC3"
        },
        {
            "bufferView" : 22,
            "componentType" : 5126,
            "count" : 30,
            "type" : "VEC2"
        },
        {
            "bufferView" : 23,
            "componentType" : 5123,
            "count" : 48,
            "type" : "SCALAR"
        },
        {
            "bufferView" : 24,
            "componentType" : 5126,
            "count" : 8,
            "max" : [
                118.09833526611328,
                10.204473495483398,
                189.10525512695312
            ],
            "min" : [
                110.27201080322266,
                -9.453969955444336,
                144.94552612304688
            ],
            "type" : "VEC3"
        },
        {
            "bufferView" : 25,
            "componentType" : 5126,
            "count" : 8,
            "type" : "VEC3"
        },
        {
            "bufferView" : 26,
            "componentType" : 5126,
            "count" : 8,
            "type" : "VEC2"
        },
        {
            "bufferView" : 27,
            "componentType" : 5123,
            "count" : 12,
            "type" : "SCALAR"
        }
    ],
    "bufferViews" : [
        {
            "buffer" : 0,
            "byteLength" : 39864,
            "byteOffset" : 0
        },
        {
            "buffer" : 0,
            "byteLength" : 39864,
            "byteOffset" : 39864
        },
        {
            "buffer" : 0,
            "byteLength" : 26576,
            "byteOffset" : 79728
        },
        {
            "buffer" : 0,
            "byteLength" : 10560,
            "byteOffset" : 106304
        },
        {
            "buffer" : 0,
            "byteLength" : 59136,
            "byteOffset" : 116864
        },
        {
            "buffer" : 0,
            "byteLength" : 59136,
            "byteOffset" : 176000
        },
        {
            "buffer" : 0,
            "byteLength" : 39424,
            "byteOffset" : 235136
        },
        {
            "buffer" : 0,
            "byteLength" : 14976,
            "byteOffset" : 274560
        },
        {
            "buffer" : 0,
            "byteLength" : 288,
            "byteOffset" : 289536
        },
        {
            "buffer" : 0,
            "byteLength" : 288,
            "byteOffset" : 289824
        },
        {
            "buffer" : 0,
            "byteLength" : 192,
            "byteOffset" : 290112
        },
        {
            "buffer" : 0,
            "byteLength" : 72,
            "byteOffset" : 290304
        },
        {
            "buffer" : 0,
            "byteLength" : 4200,
            "byteOffset" : 290376
        },
        {
            "buffer" : 0,
            "byteLength" : 4200,
            "byteOffset" : 294576
        },
        {
            "buffer" : 0,
            "byteLength" : 2800,
            "byteOffset" : 298776
        },
        {
            "buffer" : 0,
            "byteLength" : 1248,
            "byteOffset" : 301576
        },
        {
            "buffer" : 0,
            "byteLength" : 4200,
            "byteOffset" : 302824
        },
        {
            "buffer" : 0,
            "byteLength" : 4200,
            "byteOffset" : 307024
        },
        {
            "buffer" : 0,
            "byteLength" : 2800,
            "byteOffset" : 311224
        },
        {
            "buffer" : 0,
            "byteLength" : 1248,
            "byteOffset" : 314024
        },
        {
            "buffer" : 0,
            "byteLength" : 360,
            "byteOffset" : 315272
        },
        {
            "buffer" : 0,
            "byteLength" : 360,
            "byteOffset" : 315632
        },
        {
            "buffer" : 0,
            "byteLength" : 240,
            "byteOffset" : 315992
        },
        {
            "buffer" : 0,
            "byteLength" : 96,
            "byteOffset" : 316232
        },
        {
            "buffer" : 0,
            "byteLength" : 96,
            "byteOffset" : 316328
        },
        {
            "buffer" : 0,
            "byteLength" : 96,
            "byteOffset" : 316424
        },
        {
            "buffer" : 0,
            "byteLength" : 64,
            "byteOffset" : 316520
        },
        {
            "buffer" : 0,
            "byteLength" : 24,
            "byteOffset" : 316584
        }
    ],
    "buffers" : [
        {
            "byteLength" : 316608,
            "uri" : "twentyfour.bin"
        }
    ]
}
