{
    "asset" : {
        "generator" : "Khronos glTF Blender I/O v1.8.19",
        "version" : "2.0"
    },
    "scene" : 0,
    "scenes" : [
        {
            "name" : "Scene",
            "nodes" : [
                0
            ]
        }
    ],
    "nodes" : [
        {
            "mesh" : 0,
            "name" : "Cube.006",
            "scale" : [
                1.3197799921035767,
                0.17391209304332733,
                0.2516304552555084
            ]
        }
    ],
    "materials" : [
        {
            "doubleSided" : true,
            "name" : "\u041c\u0430\u0442\u0435\u0440\u0438\u0430\u043b.006",
            "pbrMetallicRoughness" : {
                "baseColorFactor" : [
                    0.800000011920929,
                    0.800000011920929,
                    0.800000011920929,
                    1
                ],
                "metallicFactor" : 0,
                "roughnessFactor" : 0.5
            }
        }
    ],
    "meshes" : [
        {
            "name" : "Cube.029",
            "primitives" : [
                {
                    "attributes" : {
                        "POSITION" : 0,
                        "NORMAL" : 1,
                        "TEXCOORD_0" : 2,
                        "TEXCOORD_1" : 3
                    },
                    "indices" : 4,
                    "material" : 0
                }
            ]
        }
    ],
    "accessors" : [
        {
            "bufferView" : 0,
            "componentType" : 5126,
            "count" : 3378,
            "max" : [
                1.8157204389572144,
                1.7999999523162842,
                4.890478134155273
            ],
            "min" : [
                -1.7784337997436523,
                -1,
                -3.8036797046661377
            ],
            "type" : "VEC3"
        },
        {
            "bufferView" : 1,
            "componentType" : 5126,
            "count" : 3378,
            "type" : "VEC3"
        },
        {
            "bufferView" : 2,
            "componentType" : 5126,
            "count" : 3378,
            "type" : "VEC2"
        },
        {
            "bufferView" : 3,
            "componentType" : 5126,
            "count" : 3378,
            "type" : "VEC2"
        },
        {
            "bufferView" : 4,
            "componentType" : 5123,
            "count" : 6528,
            "type" : "SCALAR"
        }
    ],
    "bufferViews" : [
        {
            "buffer" : 0,
            "byteLength" : 40536,
            "byteOffset" : 0
        },
        {
            "buffer" : 0,
            "byteLength" : 40536,
            "byteOffset" : 40536
        },
        {
            "buffer" : 0,
            "byteLength" : 27024,
            "byteOffset" : 81072
        },
        {
            "buffer" : 0,
            "byteLength" : 27024,
            "byteOffset" : 108096
        },
        {
            "buffer" : 0,
            "byteLength" : 13056,
            "byteOffset" : 135120
        }
    ],
    "buffers" : [
        {
            "byteLength" : 148176,
            "uri" : "twelve.bin"
        }
    ]
}
