{
    "asset" : {
        "generator" : "Khronos glTF Blender I/O v3.2.40",
        "version" : "2.0"
    },
    "scene" : 0,
    "scenes" : [
        {
            "name" : "Scene",
            "nodes" : [
                0
            ]
        }
    ],
    "nodes" : [
        {
            "mesh" : 0,
            "name" : "Cube.006",
            "scale" : [
                1.3197799921035767,
                0.17391209304332733,
                0.2516304552555084
            ]
        }
    ],
    "materials" : [
        {
            "doubleSided" : true,
            "name" : "\u041c\u0430\u0442\u0435\u0440\u0438\u0430\u043b.006",
            "pbrMetallicRoughness" : {
                "baseColorFactor" : [
                    0.800000011920929,
                    0.800000011920929,
                    0.800000011920929,
                    1
                ],
                "metallicFactor" : 0,
                "roughnessFactor" : 0.5
            }
        },
        {
            "doubleSided" : true,
            "name" : "\u041c\u0430\u0442\u0435\u0440\u0438\u0430\u043b",
            "pbrMetallicRoughness" : {
                "baseColorFactor" : [
                    0.0009104786440730095,
                    0.11443536728620529,
                    0,
                    1
                ],
                "metallicFactor" : 0,
                "roughnessFactor" : 0.5
            }
        },
        {
            "doubleSided" : true,
            "name" : "\u041c\u0430\u0442\u0435\u0440\u0438\u0430\u043b.002",
            "pbrMetallicRoughness" : {
                "baseColorFactor" : [
                    0.6413351893424988,
                    0.8000000715255737,
                    0.8000000715255737,
                    1
                ],
                "metallicFactor" : 0,
                "roughnessFactor" : 0
            }
        }
    ],
    "meshes" : [
        {
            "name" : "Cube.029",
            "primitives" : [
                {
                    "attributes" : {
                        "POSITION" : 0,
                        "NORMAL" : 1,
                        "TEXCOORD_0" : 2,
                        "TEXCOORD_1" : 3
                    },
                    "indices" : 4,
                    "material" : 0
                },
                {
                    "attributes" : {
                        "POSITION" : 5,
                        "NORMAL" : 6,
                        "TEXCOORD_0" : 7,
                        "TEXCOORD_1" : 8
                    },
                    "indices" : 9,
                    "material" : 1
                },
                {
                    "attributes" : {
                        "POSITION" : 10,
                        "NORMAL" : 11,
                        "TEXCOORD_0" : 12,
                        "TEXCOORD_1" : 13
                    },
                    "indices" : 14,
                    "material" : 2
                }
            ]
        }
    ],
    "accessors" : [
        {
            "bufferView" : 0,
            "componentType" : 5126,
            "count" : 49170,
            "max" : [
                1.8157192468643188,
                1.7999999523162842,
                4.890478134155273
            ],
            "min" : [
                -2.2918219566345215,
                -1,
                -3.8036797046661377
            ],
            "type" : "VEC3"
        },
        {
            "bufferView" : 1,
            "componentType" : 5126,
            "count" : 49170,
            "type" : "VEC3"
        },
        {
            "bufferView" : 2,
            "componentType" : 5126,
            "count" : 49170,
            "type" : "VEC2"
        },
        {
            "bufferView" : 3,
            "componentType" : 5126,
            "count" : 49170,
            "type" : "VEC2"
        },
        {
            "bufferView" : 4,
            "componentType" : 5123,
            "count" : 89358,
            "type" : "SCALAR"
        },
        {
            "bufferView" : 5,
            "componentType" : 5126,
            "count" : 72,
            "max" : [
                1.8157192468643188,
                1.7999999523162842,
                4.890478134155273
            ],
            "min" : [
                -2.2918219566345215,
                1,
                -3.8036797046661377
            ],
            "type" : "VEC3"
        },
        {
            "bufferView" : 6,
            "componentType" : 5126,
            "count" : 72,
            "type" : "VEC3"
        },
        {
            "bufferView" : 7,
            "componentType" : 5126,
            "count" : 72,
            "type" : "VEC2"
        },
        {
            "bufferView" : 8,
            "componentType" : 5126,
            "count" : 72,
            "type" : "VEC2"
        },
        {
            "bufferView" : 9,
            "componentType" : 5123,
            "count" : 108,
            "type" : "SCALAR"
        },
        {
            "bufferView" : 10,
            "componentType" : 5126,
            "count" : 10004,
            "max" : [
                1.8064136505126953,
                0.8650951385498047,
                4.496524810791016
            ],
            "min" : [
                -2.2116851806640625,
                -0.8026736974716187,
                -3.7794737815856934
            ],
            "type" : "VEC3"
        },
        {
            "bufferView" : 11,
            "componentType" : 5126,
            "count" : 10004,
            "type" : "VEC3"
        },
        {
            "bufferView" : 12,
            "componentType" : 5126,
            "count" : 10004,
            "type" : "VEC2"
        },
        {
            "bufferView" : 13,
            "componentType" : 5126,
            "count" : 10004,
            "type" : "VEC2"
        },
        {
            "bufferView" : 14,
            "componentType" : 5123,
            "count" : 27336,
            "type" : "SCALAR"
        }
    ],
    "bufferViews" : [
        {
            "buffer" : 0,
            "byteLength" : 590040,
            "byteOffset" : 0
        },
        {
            "buffer" : 0,
            "byteLength" : 590040,
            "byteOffset" : 590040
        },
        {
            "buffer" : 0,
            "byteLength" : 393360,
            "byteOffset" : 1180080
        },
        {
            "buffer" : 0,
            "byteLength" : 393360,
            "byteOffset" : 1573440
        },
        {
            "buffer" : 0,
            "byteLength" : 178716,
            "byteOffset" : 1966800
        },
        {
            "buffer" : 0,
            "byteLength" : 864,
            "byteOffset" : 2145516
        },
        {
            "buffer" : 0,
            "byteLength" : 864,
            "byteOffset" : 2146380
        },
        {
            "buffer" : 0,
            "byteLength" : 576,
            "byteOffset" : 2147244
        },
        {
            "buffer" : 0,
            "byteLength" : 576,
            "byteOffset" : 2147820
        },
        {
            "buffer" : 0,
            "byteLength" : 216,
            "byteOffset" : 2148396
        },
        {
            "buffer" : 0,
            "byteLength" : 120048,
            "byteOffset" : 2148612
        },
        {
            "buffer" : 0,
            "byteLength" : 120048,
            "byteOffset" : 2268660
        },
        {
            "buffer" : 0,
            "byteLength" : 80032,
            "byteOffset" : 2388708
        },
        {
            "buffer" : 0,
            "byteLength" : 80032,
            "byteOffset" : 2468740
        },
        {
            "buffer" : 0,
            "byteLength" : 54672,
            "byteOffset" : 2548772
        }
    ],
    "buffers" : [
        {
            "byteLength" : 2603444,
            "uri" : "twelve.bin"
        }
    ]
}
