{
    "asset" : {
        "generator" : "Khronos glTF Blender I/O v1.8.19",
        "version" : "2.0"
    },
    "scene" : 0,
    "scenes" : [
        {
            "name" : "Scene",
            "nodes" : [
                0
            ]
        }
    ],
    "nodes" : [
        {
            "mesh" : 0,
            "name" : "Cube.005",
            "rotation" : [
                0,
                0.02530457079410553,
                0,
                0.9996798038482666
            ],
            "scale" : [
                0.251811146736145,
                0.17293167114257812,
                1.5952694416046143
            ]
        }
    ],
    "materials" : [
        {
            "doubleSided" : true,
            "name" : "Material",
            "pbrMetallicRoughness" : {
                "baseColorFactor" : [
                    0.800000011920929,
                    0.800000011920929,
                    0.800000011920929,
                    1
                ],
                "metallicFactor" : 0,
                "roughnessFactor" : 0.4000000059604645
            }
        }
    ],
    "meshes" : [
        {
            "name" : "Cube.004",
            "primitives" : [
                {
                    "attributes" : {
                        "POSITION" : 0,
                        "NORMAL" : 1,
                        "TEXCOORD_0" : 2,
                        "TEXCOORD_1" : 3
                    },
                    "indices" : 4,
                    "material" : 0
                }
            ]
        }
    ],
    "accessors" : [
        {
            "bufferView" : 0,
            "componentType" : 5126,
            "count" : 1454,
            "max" : [
                1.0444698333740234,
                1.4998321533203125,
                0.6290733814239502
            ],
            "min" : [
                -0.9555301070213318,
                -1.0001678466796875,
                -0.6209266185760498
            ],
            "type" : "VEC3"
        },
        {
            "bufferView" : 1,
            "componentType" : 5126,
            "count" : 1454,
            "type" : "VEC3"
        },
        {
            "bufferView" : 2,
            "componentType" : 5126,
            "count" : 1454,
            "type" : "VEC2"
        },
        {
            "bufferView" : 3,
            "componentType" : 5126,
            "count" : 1454,
            "type" : "VEC2"
        },
        {
            "bufferView" : 4,
            "componentType" : 5123,
            "count" : 3084,
            "type" : "SCALAR"
        }
    ],
    "bufferViews" : [
        {
            "buffer" : 0,
            "byteLength" : 17448,
            "byteOffset" : 0
        },
        {
            "buffer" : 0,
            "byteLength" : 17448,
            "byteOffset" : 17448
        },
        {
            "buffer" : 0,
            "byteLength" : 11632,
            "byteOffset" : 34896
        },
        {
            "buffer" : 0,
            "byteLength" : 11632,
            "byteOffset" : 46528
        },
        {
            "buffer" : 0,
            "byteLength" : 6168,
            "byteOffset" : 58160
        }
    ],
    "buffers" : [
        {
            "byteLength" : 64328,
            "uri" : "thirteen.bin"
        }
    ]
}
