{
    "asset" : {
        "generator" : "Khronos glTF Blender I/O v3.2.40",
        "version" : "2.0"
    },
    "scene" : 0,
    "scenes" : [
        {
            "name" : "Scene",
            "nodes" : [
                0
            ]
        }
    ],
    "nodes" : [
        {
            "mesh" : 0,
            "name" : "\u041a\u0443\u0431.001",
            "rotation" : [
                0.7071068286895752,
                0,
                0.7071068286895752,
                0
            ],
            "scale" : [
                0.03639134764671326,
                0.06639134883880615,
                0.0010000000474974513
            ],
            "translation" : [
                -0.22686165571212769,
                -0.10731752961874008,
                0
            ]
        }
    ],
    "materials" : [
        {
            "doubleSided" : true,
            "name" : "\u041c\u0430\u0442\u0435\u0440\u0438\u0430\u043b.001",
            "pbrMetallicRoughness" : {
                "baseColorFactor" : [
                    0.5814617872238159,
                    0.5390603542327881,
                    0.5066989064216614,
                    1
                ],
                "metallicFactor" : 0,
                "roughnessFactor" : 0.11023622751235962
            }
        },
        {
            "doubleSided" : true,
            "name" : "\u041c\u0430\u0442\u0435\u0440\u0438\u0430\u043b.002",
            "pbrMetallicRoughness" : {
                "baseColorFactor" : [
                    0.6413351893424988,
                    0.8000000715255737,
                    0.8000000715255737,
                    1
                ],
                "metallicFactor" : 0,
                "roughnessFactor" : 0
            }
        },
        {
            "doubleSided" : true,
            "name" : "\u041c\u0430\u0442\u0435\u0440\u0438\u0430\u043b.005",
            "pbrMetallicRoughness" : {
                "baseColorFactor" : [
                    0.800000011920929,
                    0.800000011920929,
                    0.800000011920929,
                    1
                ],
                "metallicFactor" : 0,
                "roughnessFactor" : 0.5
            }
        },
        {
            "doubleSided" : true,
            "name" : "\u041c\u0430\u0442\u0435\u0440\u0438\u0430\u043b",
            "pbrMetallicRoughness" : {
                "baseColorFactor" : [
                    0.0009104786440730095,
                    0.11443536728620529,
                    0,
                    1
                ],
                "metallicFactor" : 0,
                "roughnessFactor" : 0.5
            }
        }
    ],
    "meshes" : [
        {
            "name" : "\u041a\u0443\u0431.013",
            "primitives" : [
                {
                    "attributes" : {
                        "POSITION" : 0,
                        "NORMAL" : 1,
                        "TEXCOORD_0" : 2,
                        "TEXCOORD_1" : 3
                    },
                    "indices" : 4,
                    "material" : 0
                },
                {
                    "attributes" : {
                        "POSITION" : 5,
                        "NORMAL" : 6,
                        "TEXCOORD_0" : 7,
                        "TEXCOORD_1" : 8
                    },
                    "indices" : 9,
                    "material" : 1
                },
                {
                    "attributes" : {
                        "POSITION" : 10,
                        "NORMAL" : 11,
                        "TEXCOORD_0" : 12,
                        "TEXCOORD_1" : 13
                    },
                    "indices" : 14,
                    "material" : 2
                },
                {
                    "attributes" : {
                        "POSITION" : 15,
                        "NORMAL" : 16,
                        "TEXCOORD_0" : 17,
                        "TEXCOORD_1" : 18
                    },
                    "indices" : 19,
                    "material" : 3
                }
            ]
        }
    ],
    "accessors" : [
        {
            "bufferView" : 0,
            "componentType" : 5126,
            "count" : 24,
            "max" : [
                1,
                1,
                1
            ],
            "min" : [
                -1,
                -1,
                -1
            ],
            "type" : "VEC3"
        },
        {
            "bufferView" : 1,
            "componentType" : 5126,
            "count" : 24,
            "type" : "VEC3"
        },
        {
            "bufferView" : 2,
            "componentType" : 5126,
            "count" : 24,
            "type" : "VEC2"
        },
        {
            "bufferView" : 3,
            "componentType" : 5126,
            "count" : 24,
            "type" : "VEC2"
        },
        {
            "bufferView" : 4,
            "componentType" : 5123,
            "count" : 36,
            "type" : "SCALAR"
        },
        {
            "bufferView" : 5,
            "componentType" : 5126,
            "count" : 380,
            "max" : [
                4.859602928161621,
                0.06822347640991211,
                6.6145477294921875
            ],
            "min" : [
                -4.855072021484375,
                -3.99714994430542,
                5.0872344970703125
            ],
            "type" : "VEC3"
        },
        {
            "bufferView" : 6,
            "componentType" : 5126,
            "count" : 380,
            "type" : "VEC3"
        },
        {
            "bufferView" : 7,
            "componentType" : 5126,
            "count" : 380,
            "type" : "VEC2"
        },
        {
            "bufferView" : 8,
            "componentType" : 5126,
            "count" : 380,
            "type" : "VEC2"
        },
        {
            "bufferView" : 9,
            "componentType" : 5123,
            "count" : 1020,
            "type" : "SCALAR"
        },
        {
            "bufferView" : 10,
            "componentType" : 5126,
            "count" : 1758,
            "max" : [
                6.914569854736328,
                1.0030609369277954,
                454.0872802734375
            ],
            "min" : [
                -6.914568901062012,
                -5.545688152313232,
                -0.3639984130859375
            ],
            "type" : "VEC3"
        },
        {
            "bufferView" : 11,
            "componentType" : 5126,
            "count" : 1758,
            "type" : "VEC3"
        },
        {
            "bufferView" : 12,
            "componentType" : 5126,
            "count" : 1758,
            "type" : "VEC2"
        },
        {
            "bufferView" : 13,
            "componentType" : 5126,
            "count" : 1758,
            "type" : "VEC2"
        },
        {
            "bufferView" : 14,
            "componentType" : 5123,
            "count" : 3180,
            "type" : "SCALAR"
        },
        {
            "bufferView" : 15,
            "componentType" : 5126,
            "count" : 8,
            "max" : [
                6.914569854736328,
                -4.23593807220459,
                454.0872802734375
            ],
            "min" : [
                -6.914568901062012,
                -5.545688152313232,
                -0.3639984130859375
            ],
            "type" : "VEC3"
        },
        {
            "bufferView" : 16,
            "componentType" : 5126,
            "count" : 8,
            "type" : "VEC3"
        },
        {
            "bufferView" : 17,
            "componentType" : 5126,
            "count" : 8,
            "type" : "VEC2"
        },
        {
            "bufferView" : 18,
            "componentType" : 5126,
            "count" : 8,
            "type" : "VEC2"
        },
        {
            "bufferView" : 19,
            "componentType" : 5123,
            "count" : 12,
            "type" : "SCALAR"
        }
    ],
    "bufferViews" : [
        {
            "buffer" : 0,
            "byteLength" : 288,
            "byteOffset" : 0
        },
        {
            "buffer" : 0,
            "byteLength" : 288,
            "byteOffset" : 288
        },
        {
            "buffer" : 0,
            "byteLength" : 192,
            "byteOffset" : 576
        },
        {
            "buffer" : 0,
            "byteLength" : 192,
            "byteOffset" : 768
        },
        {
            "buffer" : 0,
            "byteLength" : 72,
            "byteOffset" : 960
        },
        {
            "buffer" : 0,
            "byteLength" : 4560,
            "byteOffset" : 1032
        },
        {
            "buffer" : 0,
            "byteLength" : 4560,
            "byteOffset" : 5592
        },
        {
            "buffer" : 0,
            "byteLength" : 3040,
            "byteOffset" : 10152
        },
        {
            "buffer" : 0,
            "byteLength" : 3040,
            "byteOffset" : 13192
        },
        {
            "buffer" : 0,
            "byteLength" : 2040,
            "byteOffset" : 16232
        },
        {
            "buffer" : 0,
            "byteLength" : 21096,
            "byteOffset" : 18272
        },
        {
            "buffer" : 0,
            "byteLength" : 21096,
            "byteOffset" : 39368
        },
        {
            "buffer" : 0,
            "byteLength" : 14064,
            "byteOffset" : 60464
        },
        {
            "buffer" : 0,
            "byteLength" : 14064,
            "byteOffset" : 74528
        },
        {
            "buffer" : 0,
            "byteLength" : 6360,
            "byteOffset" : 88592
        },
        {
            "buffer" : 0,
            "byteLength" : 96,
            "byteOffset" : 94952
        },
        {
            "buffer" : 0,
            "byteLength" : 96,
            "byteOffset" : 95048
        },
        {
            "buffer" : 0,
            "byteLength" : 64,
            "byteOffset" : 95144
        },
        {
            "buffer" : 0,
            "byteLength" : 64,
            "byteOffset" : 95208
        },
        {
            "buffer" : 0,
            "byteLength" : 24,
            "byteOffset" : 95272
        }
    ],
    "buffers" : [
        {
            "byteLength" : 95296,
            "uri" : "nine.bin"
        }
    ]
}
