{
    "asset" : {
        "generator" : "Khronos glTF Blender I/O v1.8.19",
        "version" : "2.0"
    },
    "scene" : 0,
    "scenes" : [
        {
            "name" : "Scene",
            "nodes" : [
                0
            ]
        }
    ],
    "nodes" : [
        {
            "mesh" : 0,
            "name" : "Cube.003",
            "scale" : [
                0.3049284815788269,
                0.17391209304332733,
                0.14757710695266724
            ],
            "translation" : [
                0,
                0.4650641679763794,
                0
            ]
        }
    ],
    "materials" : [
        {
            "doubleSided" : true,
            "name" : "Material",
            "pbrMetallicRoughness" : {
                "baseColorFactor" : [
                    0.7525760531425476,
                    0.8000000715255737,
                    0.7068337798118591,
                    1
                ],
                "metallicFactor" : 0,
                "roughnessFactor" : 0.4000000059604645
            }
        }
    ],
    "meshes" : [
        {
            "name" : "Cube.027",
            "primitives" : [
                {
                    "attributes" : {
                        "POSITION" : 0,
                        "NORMAL" : 1,
                        "TEXCOORD_0" : 2
                    },
                    "indices" : 3,
                    "material" : 0
                }
            ]
        }
    ],
    "accessors" : [
        {
            "bufferView" : 0,
            "componentType" : 5126,
            "count" : 124273,
            "max" : [
                2.3710179328918457,
                -0.314117431640625,
                8.644091606140137
            ],
            "min" : [
                -2.3352906703948975,
                -2.0178375244140625,
                -8.718628883361816
            ],
            "type" : "VEC3"
        },
        {
            "bufferView" : 1,
            "componentType" : 5126,
            "count" : 124273,
            "type" : "VEC3"
        },
        {
            "bufferView" : 2,
            "componentType" : 5126,
            "count" : 124273,
            "type" : "VEC2"
        },
        {
            "bufferView" : 3,
            "componentType" : 5125,
            "count" : 247383,
            "type" : "SCALAR"
        }
    ],
    "bufferViews" : [
        {
            "buffer" : 0,
            "byteLength" : 1491276,
            "byteOffset" : 0
        },
        {
            "buffer" : 0,
            "byteLength" : 1491276,
            "byteOffset" : 1491276
        },
        {
            "buffer" : 0,
            "byteLength" : 994184,
            "byteOffset" : 2982552
        },
        {
            "buffer" : 0,
            "byteLength" : 989532,
            "byteOffset" : 3976736
        }
    ],
    "buffers" : [
        {
            "byteLength" : 4966268,
            "uri" : "four.bin"
        }
    ]
}
