{
    "asset" : {
        "generator" : "Khronos glTF Blender I/O v3.2.40",
        "version" : "2.0"
    },
    "scene" : 0,
    "scenes" : [
        {
            "name" : "Scene",
            "nodes" : [
                0
            ]
        }
    ],
    "nodes" : [
        {
            "mesh" : 0,
            "name" : "Cylinder.171",
            "scale" : [
                0.012210000306367874,
                0.08012399822473526,
                0.012210000306367874
            ],
            "translation" : [
                0.24376541376113892,
                0.06002451479434967,
                -0.22354507446289062
            ]
        }
    ],
    "materials" : [
        {
            "doubleSided" : true,
            "name" : "Material",
            "pbrMetallicRoughness" : {
                "baseColorFactor" : [
                    0.7525760531425476,
                    0.8000000715255737,
                    0.7068337798118591,
                    1
                ],
                "metallicFactor" : 0,
                "roughnessFactor" : 0.4000000059604645
            }
        },
        {
            "doubleSided" : true,
            "name" : "Material.001",
            "pbrMetallicRoughness" : {
                "baseColorFactor" : [
                    0.0009104912169277668,
                    0.1144353598356247,
                    0,
                    1
                ],
                "metallicFactor" : 0,
                "roughnessFactor" : 0.5
            }
        }
    ],
    "meshes" : [
        {
            "name" : "Cylinder.340",
            "primitives" : [
                {
                    "attributes" : {
                        "POSITION" : 0,
                        "NORMAL" : 1,
                        "TEXCOORD_0" : 2
                    },
                    "indices" : 3,
                    "material" : 0
                },
                {
                    "attributes" : {
                        "POSITION" : 4,
                        "NORMAL" : 5,
                        "TEXCOORD_0" : 6
                    },
                    "indices" : 7,
                    "material" : 1
                }
            ]
        }
    ],
    "accessors" : [
        {
            "bufferView" : 0,
            "componentType" : 5126,
            "count" : 97047,
            "max" : [
                41.89447021484375,
                2.506425380706787,
                133.57696533203125
            ],
            "min" : [
                -75.64119720458984,
                -1.1834877729415894,
                -75.361572265625
            ],
            "type" : "VEC3"
        },
        {
            "bufferView" : 1,
            "componentType" : 5126,
            "count" : 97047,
            "type" : "VEC3"
        },
        {
            "bufferView" : 2,
            "componentType" : 5126,
            "count" : 97047,
            "type" : "VEC2"
        },
        {
            "bufferView" : 3,
            "componentType" : 5125,
            "count" : 194046,
            "type" : "SCALAR"
        },
        {
            "bufferView" : 4,
            "componentType" : 5126,
            "count" : 112,
            "max" : [
                41.89447021484375,
                2.506425380706787,
                133.57696533203125
            ],
            "min" : [
                -75.64119720458984,
                1.4211560487747192,
                -75.361572265625
            ],
            "type" : "VEC3"
        },
        {
            "bufferView" : 5,
            "componentType" : 5126,
            "count" : 112,
            "type" : "VEC3"
        },
        {
            "bufferView" : 6,
            "componentType" : 5126,
            "count" : 112,
            "type" : "VEC2"
        },
        {
            "bufferView" : 7,
            "componentType" : 5123,
            "count" : 168,
            "type" : "SCALAR"
        }
    ],
    "bufferViews" : [
        {
            "buffer" : 0,
            "byteLength" : 1164564,
            "byteOffset" : 0
        },
        {
            "buffer" : 0,
            "byteLength" : 1164564,
            "byteOffset" : 1164564
        },
        {
            "buffer" : 0,
            "byteLength" : 776376,
            "byteOffset" : 2329128
        },
        {
            "buffer" : 0,
            "byteLength" : 776184,
            "byteOffset" : 3105504
        },
        {
            "buffer" : 0,
            "byteLength" : 1344,
            "byteOffset" : 3881688
        },
        {
            "buffer" : 0,
            "byteLength" : 1344,
            "byteOffset" : 3883032
        },
        {
            "buffer" : 0,
            "byteLength" : 896,
            "byteOffset" : 3884376
        },
        {
            "buffer" : 0,
            "byteLength" : 336,
            "byteOffset" : 3885272
        }
    ],
    "buffers" : [
        {
            "byteLength" : 3885608,
            "uri" : "four.bin"
        }
    ]
}
