{
    "asset" : {
        "generator" : "Khronos glTF Blender I/O v1.8.19",
        "version" : "2.0"
    },
    "scene" : 0,
    "scenes" : [
        {
            "name" : "Scene",
            "nodes" : [
                0
            ]
        }
    ],
    "nodes" : [
        {
            "mesh" : 0,
            "name" : "Cube.020",
            "scale" : [
                1.8140300512313843,
                0.17391209304332733,
                0.2516304552555084
            ]
        }
    ],
    "materials" : [
        {
            "doubleSided" : true,
            "name" : "\u041c\u0430\u0442\u0435\u0440\u0438\u0430\u043b.002",
            "pbrMetallicRoughness" : {
                "baseColorFactor" : [
                    0.800000011920929,
                    0.800000011920929,
                    0.800000011920929,
                    1
                ],
                "metallicFactor" : 0,
                "roughnessFactor" : 0.5
            }
        }
    ],
    "meshes" : [
        {
            "name" : "Cube.024",
            "primitives" : [
                {
                    "attributes" : {
                        "POSITION" : 0,
                        "NORMAL" : 1,
                        "TEXCOORD_0" : 2,
                        "TEXCOORD_1" : 3
                    },
                    "indices" : 4,
                    "material" : 0
                }
            ]
        }
    ],
    "accessors" : [
        {
            "bufferView" : 0,
            "componentType" : 5126,
            "count" : 4931,
            "max" : [
                1.0000072717666626,
                1.5,
                0.9999892711639404
            ],
            "min" : [
                -0.9999892711639404,
                -1,
                -1.0000072717666626
            ],
            "type" : "VEC3"
        },
        {
            "bufferView" : 1,
            "componentType" : 5126,
            "count" : 4931,
            "type" : "VEC3"
        },
        {
            "bufferView" : 2,
            "componentType" : 5126,
            "count" : 4931,
            "type" : "VEC2"
        },
        {
            "bufferView" : 3,
            "componentType" : 5126,
            "count" : 4931,
            "type" : "VEC2"
        },
        {
            "bufferView" : 4,
            "componentType" : 5123,
            "count" : 9900,
            "type" : "SCALAR"
        }
    ],
    "bufferViews" : [
        {
            "buffer" : 0,
            "byteLength" : 59172,
            "byteOffset" : 0
        },
        {
            "buffer" : 0,
            "byteLength" : 59172,
            "byteOffset" : 59172
        },
        {
            "buffer" : 0,
            "byteLength" : 39448,
            "byteOffset" : 118344
        },
        {
            "buffer" : 0,
            "byteLength" : 39448,
            "byteOffset" : 157792
        },
        {
            "buffer" : 0,
            "byteLength" : 19800,
            "byteOffset" : 197240
        }
    ],
    "buffers" : [
        {
            "byteLength" : 217040,
            "uri" : "six.bin"
        }
    ]
}
