{
    "asset" : {
        "generator" : "Khronos glTF Blender I/O v1.8.19",
        "version" : "2.0"
    },
    "scene" : 0,
    "scenes" : [
        {
            "name" : "Scene",
            "nodes" : [
                0
            ]
        }
    ],
    "nodes" : [
        {
            "mesh" : 0,
            "name" : "Cube.032",
            "scale" : [
                1.853422999382019,
                0.17768894135951996,
                0.2570950984954834
            ]
        }
    ],
    "materials" : [
        {
            "doubleSided" : true,
            "name" : "\u041c\u0430\u0442\u0435\u0440\u0438\u0430\u043b.001",
            "pbrMetallicRoughness" : {
                "baseColorFactor" : [
                    0.800000011920929,
                    0.800000011920929,
                    0.800000011920929,
                    1
                ],
                "metallicFactor" : 0,
                "roughnessFactor" : 0.5
            }
        }
    ],
    "meshes" : [
        {
            "name" : "Cube.036",
            "primitives" : [
                {
                    "attributes" : {
                        "POSITION" : 0,
                        "NORMAL" : 1,
                        "TEXCOORD_0" : 2,
                        "TEXCOORD_1" : 3
                    },
                    "indices" : 4,
                    "material" : 0
                }
            ]
        }
    ],
    "accessors" : [
        {
            "bufferView" : 0,
            "componentType" : 5126,
            "count" : 15202,
            "max" : [
                1.0099506378173828,
                2.009999990463257,
                8.88228988647461
            ],
            "min" : [
                -1.0099602937698364,
                -1.0099999904632568,
                -8.714227676391602
            ],
            "type" : "VEC3"
        },
        {
            "bufferView" : 1,
            "componentType" : 5126,
            "count" : 15202,
            "type" : "VEC3"
        },
        {
            "bufferView" : 2,
            "componentType" : 5126,
            "count" : 15202,
            "type" : "VEC2"
        },
        {
            "bufferView" : 3,
            "componentType" : 5126,
            "count" : 15202,
            "type" : "VEC2"
        },
        {
            "bufferView" : 4,
            "componentType" : 5123,
            "count" : 29766,
            "type" : "SCALAR"
        }
    ],
    "bufferViews" : [
        {
            "buffer" : 0,
            "byteLength" : 182424,
            "byteOffset" : 0
        },
        {
            "buffer" : 0,
            "byteLength" : 182424,
            "byteOffset" : 182424
        },
        {
            "buffer" : 0,
            "byteLength" : 121616,
            "byteOffset" : 364848
        },
        {
            "buffer" : 0,
            "byteLength" : 121616,
            "byteOffset" : 486464
        },
        {
            "buffer" : 0,
            "byteLength" : 59532,
            "byteOffset" : 608080
        }
    ],
    "buffers" : [
        {
            "byteLength" : 667612,
            "uri" : "five.bin"
        }
    ]
}
