{
    "asset" : {
        "generator" : "Khronos glTF Blender I/O v1.8.19",
        "version" : "2.0"
    },
    "scene" : 0,
    "scenes" : [
        {
            "name" : "Scene",
            "nodes" : [
                0
            ]
        }
    ],
    "nodes" : [
        {
            "mesh" : 0,
            "name" : "Cube.015",
            "rotation" : [
                0,
                0.02530457079410553,
                0,
                0.9996798038482666
            ],
            "scale" : [
                0.3697485029697418,
                0.17293167114257812,
                1.5976340770721436
            ]
        }
    ],
    "materials" : [
        {
            "doubleSided" : true,
            "name" : "Material",
            "pbrMetallicRoughness" : {
                "baseColorFactor" : [
                    0.800000011920929,
                    0.800000011920929,
                    0.800000011920929,
                    1
                ],
                "metallicFactor" : 0,
                "roughnessFactor" : 0.4000000059604645
            }
        }
    ],
    "meshes" : [
        {
            "name" : "Cube.007",
            "primitives" : [
                {
                    "attributes" : {
                        "POSITION" : 0,
                        "NORMAL" : 1,
                        "TEXCOORD_0" : 2,
                        "TEXCOORD_1" : 3
                    },
                    "indices" : 4,
                    "material" : 0
                }
            ]
        }
    ],
    "accessors" : [
        {
            "bufferView" : 0,
            "componentType" : 5126,
            "count" : 915,
            "max" : [
                1.0250873565673828,
                1.5832209587097168,
                0.3745439648628235
            ],
            "min" : [
                -0.9749125838279724,
                -0.9167790412902832,
                -0.3754560351371765
            ],
            "type" : "VEC3"
        },
        {
            "bufferView" : 1,
            "componentType" : 5126,
            "count" : 915,
            "type" : "VEC3"
        },
        {
            "bufferView" : 2,
            "componentType" : 5126,
            "count" : 915,
            "type" : "VEC2"
        },
        {
            "bufferView" : 3,
            "componentType" : 5126,
            "count" : 915,
            "type" : "VEC2"
        },
        {
            "bufferView" : 4,
            "componentType" : 5123,
            "count" : 1926,
            "type" : "SCALAR"
        }
    ],
    "bufferViews" : [
        {
            "buffer" : 0,
            "byteLength" : 10980,
            "byteOffset" : 0
        },
        {
            "buffer" : 0,
            "byteLength" : 10980,
            "byteOffset" : 10980
        },
        {
            "buffer" : 0,
            "byteLength" : 7320,
            "byteOffset" : 21960
        },
        {
            "buffer" : 0,
            "byteLength" : 7320,
            "byteOffset" : 29280
        },
        {
            "buffer" : 0,
            "byteLength" : 3852,
            "byteOffset" : 36600
        }
    ],
    "buffers" : [
        {
            "byteLength" : 40452,
            "uri" : "fourteen.bin"
        }
    ]
}
