{
    "asset" : {
        "generator" : "Khronos glTF Blender I/O v1.8.19",
        "version" : "2.0"
    },
    "scene" : 0,
    "scenes" : [
        {
            "name" : "Scene",
            "nodes" : [
                0
            ]
        }
    ],
    "nodes" : [
        {
            "mesh" : 0,
            "name" : "Cube.008",
            "scale" : [
                0.27313804626464844,
                0.17391209304332733,
                0.2516304552555084
            ]
        }
    ],
    "materials" : [
        {
            "doubleSided" : true,
            "name" : "\u041c\u0430\u0442\u0435\u0440\u0438\u0430\u043b.003",
            "pbrMetallicRoughness" : {
                "baseColorFactor" : [
                    0.800000011920929,
                    0.800000011920929,
                    0.800000011920929,
                    1
                ],
                "metallicFactor" : 0,
                "roughnessFactor" : 0.5
            }
        }
    ],
    "meshes" : [
        {
            "name" : "Cube.009",
            "primitives" : [
                {
                    "attributes" : {
                        "POSITION" : 0,
                        "NORMAL" : 1,
                        "TEXCOORD_0" : 2,
                        "TEXCOORD_1" : 3
                    },
                    "indices" : 4,
                    "material" : 0
                }
            ]
        }
    ],
    "accessors" : [
        {
            "bufferView" : 0,
            "componentType" : 5126,
            "count" : 694,
            "max" : [
                2.384026050567627,
                1.5,
                1.0000011920928955
            ],
            "min" : [
                -1.3172576427459717,
                -1,
                -2.685978651046753
            ],
            "type" : "VEC3"
        },
        {
            "bufferView" : 1,
            "componentType" : 5126,
            "count" : 694,
            "type" : "VEC3"
        },
        {
            "bufferView" : 2,
            "componentType" : 5126,
            "count" : 694,
            "type" : "VEC2"
        },
        {
            "bufferView" : 3,
            "componentType" : 5126,
            "count" : 694,
            "type" : "VEC2"
        },
        {
            "bufferView" : 4,
            "componentType" : 5123,
            "count" : 1311,
            "type" : "SCALAR"
        }
    ],
    "bufferViews" : [
        {
            "buffer" : 0,
            "byteLength" : 8328,
            "byteOffset" : 0
        },
        {
            "buffer" : 0,
            "byteLength" : 8328,
            "byteOffset" : 8328
        },
        {
            "buffer" : 0,
            "byteLength" : 5552,
            "byteOffset" : 16656
        },
        {
            "buffer" : 0,
            "byteLength" : 5552,
            "byteOffset" : 22208
        },
        {
            "buffer" : 0,
            "byteLength" : 2622,
            "byteOffset" : 27760
        }
    ],
    "buffers" : [
        {
            "byteLength" : 30384,
            "uri" : "seven.bin"
        }
    ]
}
